<svg width="175" height="38" viewBox="0 0 175 38" fill="none" xmlns="http://www.w3.org/2000/svg">
<path d="M93.2188 3.4L94.1388 3.36H94.1788C94.8988 3.36 95.2855 3.44 95.3388 3.6C95.3655 3.70667 95.7255 8.02667 96.4188 16.56C97.0855 25.1467 97.4455 29.4667 97.4988 29.52C97.5255 29.5467 97.6188 29.5867 97.7788 29.64C98.0988 29.72 98.8722 29.76 100.099 29.76H100.899L101.059 29.88C101.139 30.0133 101.179 30.1067 101.179 30.16L100.819 31.76C100.739 31.92 100.446 31.9867 99.9388 31.96C99.8322 31.96 99.6322 31.96 99.3388 31.96C95.4722 31.8533 92.3122 31.8667 89.8588 32H89.3788L89.2588 31.88C89.1522 31.7733 89.0988 31.6667 89.0988 31.56C89.0988 31.1333 89.2322 30.6133 89.4988 30C89.5522 29.84 89.9388 29.76 90.6588 29.76C91.2988 29.7067 91.7255 29.68 91.9388 29.68C92.5522 29.5733 92.8855 29.4667 92.9388 29.36C92.9655 29.3333 92.9122 28.4533 92.7788 26.72C92.6455 25.1733 92.5788 24.2933 92.5788 24.08C92.5788 24.0267 91.0588 24 88.0188 24H83.4188L82.2188 26.12C81.3655 27.56 80.9255 28.3467 80.8988 28.48C80.7922 28.7467 80.8322 28.9733 81.0188 29.16C81.2855 29.48 81.8588 29.68 82.7388 29.76C83.1122 29.76 83.3522 29.8533 83.4588 30.04L83.4988 30.16L83.2988 30.96C83.1922 31.4667 83.0855 31.7733 82.9788 31.88L82.8588 32H82.3788C80.1655 31.8933 78.0722 31.8667 76.0988 31.92C74.7388 31.9733 74.0455 32 74.0188 32H73.7388L73.6188 31.88C73.5122 31.7733 73.4588 31.68 73.4588 31.6L73.8188 30C73.9255 29.84 74.2322 29.76 74.7388 29.76C76.6055 29.68 77.8988 29.1467 78.6188 28.16L85.8588 15.76C90.4988 7.73333 92.8722 3.66667 92.9788 3.56C93.0055 3.53333 93.0855 3.48 93.2188 3.4ZM91.9388 16C91.6455 12.1867 91.4988 10.2533 91.4988 10.2C91.4988 10.0933 90.9122 11.0667 89.7388 13.12L86.3788 18.92L84.7388 21.72L88.5388 21.76H92.3788C92.3788 21.7867 92.2322 19.8667 91.9388 16ZM107.899 14.36C108.299 14.28 108.859 14.3067 109.579 14.44C111.019 14.8133 111.886 15.64 112.179 16.92C112.259 17.24 112.286 17.56 112.259 17.88C112.232 18.36 112.019 19.1333 111.619 20.2C110.632 22.8133 109.992 24.8133 109.699 26.2C109.459 27.6133 109.512 28.7067 109.859 29.48C110.099 29.9867 110.472 30.3067 110.979 30.44C111.619 30.7067 112.419 30.6 113.379 30.12C114.152 29.6933 114.819 29.0267 115.379 28.12C115.459 28.0133 115.979 26.0133 116.939 22.12C117.952 18.1467 118.499 16.0933 118.579 15.96C119.006 15.1867 119.646 14.7867 120.499 14.76C120.926 14.76 121.286 14.88 121.579 15.12C121.712 15.1733 121.832 15.32 121.939 15.56C122.072 15.8533 122.086 16.2667 121.979 16.8C121.846 17.4133 121.392 19.2533 120.619 22.32C119.659 26.16 119.152 28.24 119.099 28.56C119.046 29.2533 119.059 29.72 119.139 29.96C119.246 30.3067 119.472 30.5067 119.819 30.56C120.139 30.56 120.392 30.48 120.579 30.32C121.139 29.92 121.686 28.7333 122.219 26.76C122.326 26.2533 122.446 25.9733 122.579 25.92C122.686 25.8933 122.939 25.88 123.339 25.88C123.846 25.88 124.126 25.9067 124.179 25.96C124.339 26.0667 124.339 26.3733 124.179 26.88C123.726 28.56 123.179 29.84 122.539 30.72C122.112 31.36 121.592 31.8267 120.979 32.12C120.552 32.3333 120.019 32.44 119.379 32.44C117.806 32.36 116.659 31.72 115.939 30.52L115.819 30.32L115.659 30.48C115.152 31.0133 114.512 31.48 113.739 31.88C113.019 32.2267 112.299 32.4133 111.579 32.44C109.899 32.4933 108.552 32.1067 107.539 31.28C106.339 30.32 105.819 28.8533 105.979 26.88C106.086 25.5733 106.712 23.3733 107.859 20.28C107.886 20.1733 107.912 20.08 107.939 20C108.312 19.0667 108.512 18.5067 108.539 18.32C108.859 17.4133 108.899 16.7867 108.659 16.44C108.552 16.28 108.339 16.2 108.019 16.2C106.899 16.3067 105.952 17.2667 105.179 19.08C105.046 19.4 104.926 19.7467 104.819 20.12C104.712 20.44 104.659 20.6133 104.659 20.64C104.366 20.8 104.046 20.88 103.699 20.88H102.939L102.819 20.76C102.686 20.6533 102.699 20.3733 102.859 19.92C103.072 19.2 103.312 18.5867 103.579 18.08C104.672 15.92 106.112 14.68 107.899 14.36ZM133.549 7C133.949 6.89333 134.323 6.92 134.669 7.08C135.069 7.21333 135.336 7.46667 135.469 7.84C135.576 8.16 135.496 8.82667 135.229 9.84C135.149 10.1867 135.003 10.7867 134.789 11.64C134.309 13.64 134.056 14.6533 134.029 14.68C134.029 14.7333 134.669 14.76 135.949 14.76H137.869L137.989 14.88C138.149 14.9867 138.149 15.3333 137.989 15.92C137.909 16.32 137.829 16.6 137.749 16.76C137.669 16.8933 137.403 16.9733 136.949 17C136.736 17 136.243 17 135.469 17H133.469L133.429 17.16C133.429 17.24 132.963 19.0933 132.029 22.72C131.176 26.1333 130.709 28.08 130.629 28.56C130.523 29.1467 130.536 29.6267 130.669 30C130.856 30.4533 131.296 30.6267 131.989 30.52C133.136 30.28 134.163 29.4667 135.069 28.08C135.523 27.3867 135.816 26.8267 135.949 26.4C136.083 26.1067 136.229 25.9467 136.389 25.92C136.496 25.8933 136.723 25.88 137.069 25.88C137.576 25.88 137.869 25.9067 137.949 25.96C138.109 26.12 138.069 26.44 137.829 26.92C137.163 28.36 136.336 29.56 135.349 30.52C134.789 31.08 134.229 31.4933 133.669 31.76C133.243 32 132.776 32.1867 132.269 32.32C132.029 32.3733 131.656 32.4 131.149 32.4C130.643 32.4 130.243 32.36 129.949 32.28C128.989 32.04 128.243 31.5867 127.709 30.92C127.363 30.44 127.149 29.9467 127.069 29.44C127.016 29.2267 126.989 28.92 126.989 28.52L127.029 27.96L128.389 22.52C129.296 18.9467 129.749 17.12 129.749 17.04C129.749 17.0133 129.109 17 127.829 17C126.496 17 125.776 16.9067 125.669 16.72C125.616 16.64 125.643 16.3467 125.749 15.84C125.909 15.3067 126.003 15.0267 126.029 15C126.109 14.8667 126.376 14.7867 126.829 14.76C127.043 14.76 127.536 14.76 128.309 14.76H130.349L131.109 11.6C131.669 9.33333 132.043 8.09333 132.229 7.88C132.283 7.82667 132.363 7.74667 132.469 7.64C132.763 7.34667 133.123 7.13333 133.549 7ZM150.723 14.4C151.656 14.2667 152.576 14.3067 153.483 14.52C155.563 14.9733 157.056 16.1333 157.963 18C159.029 20.1333 158.976 22.52 157.803 25.16C157.589 25.64 157.349 26.1067 157.083 26.56C155.563 29.0933 153.456 30.8533 150.763 31.84C150.069 32.08 149.363 32.2533 148.643 32.36C148.083 32.4667 147.376 32.48 146.523 32.4C146.443 32.3733 146.376 32.36 146.323 32.36C144.803 32.12 143.523 31.5067 142.483 30.52C141.603 29.6133 141.029 28.5467 140.763 27.32C140.203 24.92 140.736 22.4533 142.363 19.92C143.323 18.4267 144.523 17.2 145.963 16.24C147.536 15.1733 149.123 14.56 150.723 14.4ZM152.083 16.24C151.043 16.1067 150.043 16.3067 149.083 16.84C147.563 17.6667 146.456 19.08 145.763 21.08C145.309 22.3067 144.949 23.6533 144.683 25.12C144.203 27.4933 144.536 29.1067 145.683 29.96C145.763 30.0133 145.843 30.0667 145.923 30.12C146.269 30.3333 146.643 30.4533 147.043 30.48C148.509 30.7467 149.909 30.3067 151.243 29.16C151.536 28.92 151.803 28.6533 152.043 28.36C152.843 27.4 153.496 25.8933 154.003 23.84C154.056 23.7067 154.096 23.56 154.123 23.4C154.549 21.72 154.763 20.4667 154.763 19.64C154.763 18.9733 154.683 18.4533 154.523 18.08C154.309 17.4933 153.909 17.0267 153.323 16.68C152.976 16.44 152.563 16.2933 152.083 16.24Z" fill="white"/>
<path d="M7.8 4.88L7.92 4.8H18.8H29.68L29.84 4.92C29.92 5.02667 29.96 5.13333 29.96 5.24L28.8 14.36C28.8 14.4933 28.7467 14.6 28.64 14.68L28.52 14.8H27.84C27.36 14.8 27.08 14.7733 27 14.72C26.8667 14.64 26.8267 14.3067 26.88 13.72C26.9867 12.9467 27.0533 12.1867 27.08 11.44C27.1067 10.3467 26.9733 9.45333 26.68 8.76C26.44 8.33333 26.08 7.97333 25.6 7.68C25.2267 7.49333 24.7333 7.34667 24.12 7.24C23.3733 7.10667 21.8267 7.05333 19.48 7.08C17.0267 7.08 15.7333 7.16 15.6 7.32L13.08 17.24C13.08 17.2667 13.76 17.28 15.12 17.28C16.5867 17.2533 17.4 17.2267 17.56 17.2C18.7333 16.9867 19.5733 16.4267 20.08 15.52C20.32 15.04 20.56 14.36 20.8 13.48C20.88 13.16 20.96 12.92 21.04 12.76C21.12 12.6533 21.4267 12.6 21.96 12.6C22.4933 12.6 22.8 12.6933 22.88 12.88L22.96 13L21.6 18.4C20.7467 21.9467 20.28 23.8 20.2 23.96C20.1467 24.12 19.84 24.2 19.28 24.2C18.72 24.2 18.4 24.1067 18.32 23.92C18.2667 23.84 18.28 23.6 18.36 23.2C18.7333 21.7333 18.7733 20.7467 18.48 20.24C18.2667 19.9467 17.8133 19.7333 17.12 19.6C16.9867 19.5733 16.16 19.5467 14.64 19.52H12.52L11.24 24.48C10.44 27.7067 10.04 29.3867 10.04 29.52C10.2 29.6533 11.1733 29.7333 12.96 29.76C14.0267 29.76 14.6133 29.7867 14.72 29.84C14.8267 29.84 14.88 29.9067 14.88 30.04C14.9333 30.12 14.8933 30.4267 14.76 30.96C14.6 31.52 14.4933 31.8267 14.44 31.88L14.32 32H13.6C10.2133 31.8667 6.53333 31.8533 2.56 31.96C1.70667 31.9867 1.22667 31.92 1.12 31.76C1.06667 31.68 1.09333 31.3733 1.2 30.84C1.33333 30.2533 1.46667 29.92 1.6 29.84C1.73333 29.7867 2.21333 29.76 3.04 29.76C4.53333 29.7333 5.37333 29.6267 5.56 29.44C5.64 29.3867 6.6 25.68 8.44 18.32C10.28 10.96 11.1867 7.26667 11.16 7.24C11.1067 7.18667 11.0133 7.16 10.88 7.16C10.56 7.08 9.77333 7.04 8.52 7.04C7.82667 7.04 7.44 6.96 7.36 6.8C7.30667 6.72 7.33333 6.41333 7.44 5.88C7.57333 5.32 7.69333 4.98667 7.8 4.88ZM31.5431 14.36C31.9431 14.28 32.5031 14.3067 33.2231 14.44C34.6631 14.8133 35.5298 15.64 35.8231 16.92C35.9031 17.24 35.9298 17.56 35.9031 17.88C35.8765 18.36 35.6631 19.1333 35.2631 20.2C34.2765 22.8133 33.6365 24.8133 33.3431 26.2C33.1031 27.6133 33.1565 28.7067 33.5031 29.48C33.7431 29.9867 34.1165 30.3067 34.6231 30.44C35.2631 30.7067 36.0631 30.6 37.0231 30.12C37.7965 29.6933 38.4631 29.0267 39.0231 28.12C39.1031 28.0133 39.6231 26.0133 40.5831 22.12C41.5965 18.1467 42.1431 16.0933 42.2231 15.96C42.6498 15.1867 43.2898 14.7867 44.1431 14.76C44.5698 14.76 44.9298 14.88 45.2231 15.12C45.3565 15.1733 45.4765 15.32 45.5831 15.56C45.7165 15.8533 45.7298 16.2667 45.6231 16.8C45.4898 17.4133 45.0365 19.2533 44.2631 22.32C43.3031 26.16 42.7965 28.24 42.7431 28.56C42.6898 29.2533 42.7031 29.72 42.7831 29.96C42.8898 30.3067 43.1165 30.5067 43.4631 30.56C43.7831 30.56 44.0365 30.48 44.2231 30.32C44.7831 29.92 45.3298 28.7333 45.8631 26.76C45.9698 26.2533 46.0898 25.9733 46.2231 25.92C46.3298 25.8933 46.5831 25.88 46.9831 25.88C47.4898 25.88 47.7698 25.9067 47.8231 25.96C47.9831 26.0667 47.9831 26.3733 47.8231 26.88C47.3698 28.56 46.8231 29.84 46.1831 30.72C45.7565 31.36 45.2365 31.8267 44.6231 32.12C44.1965 32.3333 43.6631 32.44 43.0231 32.44C41.4498 32.36 40.3031 31.72 39.5831 30.52L39.4631 30.32L39.3031 30.48C38.7965 31.0133 38.1565 31.48 37.3831 31.88C36.6631 32.2267 35.9431 32.4133 35.2231 32.44C33.5431 32.4933 32.1965 32.1067 31.1831 31.28C29.9831 30.32 29.4631 28.8533 29.6231 26.88C29.7298 25.5733 30.3565 23.3733 31.5031 20.28C31.5298 20.1733 31.5565 20.08 31.5831 20C31.9565 19.0667 32.1565 18.5067 32.1831 18.32C32.5031 17.4133 32.5431 16.7867 32.3031 16.44C32.1965 16.28 31.9831 16.2 31.6631 16.2C30.5431 16.3067 29.5965 17.2667 28.8231 19.08C28.6898 19.4 28.5698 19.7467 28.4631 20.12C28.3565 20.44 28.3031 20.6133 28.3031 20.64C28.0098 20.8 27.6898 20.88 27.3431 20.88H26.5831L26.4631 20.76C26.3298 20.6533 26.3431 20.3733 26.5031 19.92C26.7165 19.2 26.9565 18.5867 27.2231 18.08C28.3165 15.92 29.7565 14.68 31.5431 14.36ZM55.7538 4.48C57.9404 4.32 59.0071 4.24 58.9538 4.24C59.1938 4.24 59.3538 4.33333 59.4338 4.52C59.4604 4.62667 58.5004 8.6 56.5538 16.44L53.5538 28.52C53.5271 28.6267 53.5138 28.8533 53.5138 29.2C53.5138 29.8933 53.6738 30.32 53.9938 30.48C54.6871 30.7733 55.2871 30.36 55.7938 29.24C56.0071 28.84 56.2738 28.04 56.5938 26.84C56.7538 26.28 56.8871 25.9733 56.9938 25.92C57.0471 25.8933 57.3004 25.88 57.7538 25.88C58.2604 25.88 58.5538 25.9067 58.6338 25.96C58.6871 26.0133 58.7138 26.12 58.7138 26.28C58.7138 26.6267 58.5138 27.3467 58.1138 28.44C57.6871 29.4533 57.3271 30.1867 57.0338 30.64C56.4204 31.52 55.7138 32.08 54.9138 32.32C54.7271 32.3733 54.4338 32.4 54.0338 32.4C53.3938 32.4 52.8604 32.32 52.4338 32.16C51.1004 31.68 50.2871 30.7867 49.9938 29.48C49.8871 28.8667 49.8871 28.3467 49.9938 27.92C49.9938 27.9467 50.8204 24.5733 52.4738 17.8C54.1804 10.9733 54.9804 7.45333 54.8738 7.24C54.6871 7.05333 54.1138 6.94666 53.1538 6.92H52.3138L52.1538 6.76C52.0471 6.65333 52.0604 6.30667 52.1938 5.72C52.3538 5.10667 52.4871 4.77333 52.5938 4.72C52.6204 4.72 53.6738 4.64 55.7538 4.48ZM67.6678 4.48C69.8545 4.32 70.9211 4.24 70.8678 4.24C71.1078 4.24 71.2678 4.33333 71.3478 4.52C71.3745 4.62667 70.4145 8.6 68.4678 16.44L65.4678 28.52C65.4411 28.6267 65.4278 28.8533 65.4278 29.2C65.4278 29.8933 65.5878 30.32 65.9078 30.48C66.6011 30.7733 67.2011 30.36 67.7078 29.24C67.9211 28.84 68.1878 28.04 68.5078 26.84C68.6678 26.28 68.8011 25.9733 68.9078 25.92C68.9611 25.8933 69.2145 25.88 69.6678 25.88C70.1745 25.88 70.4678 25.9067 70.5478 25.96C70.6011 26.0133 70.6278 26.12 70.6278 26.28C70.6278 26.6267 70.4278 27.3467 70.0278 28.44C69.6011 29.4533 69.2411 30.1867 68.9478 30.64C68.3345 31.52 67.6278 32.08 66.8278 32.32C66.6411 32.3733 66.3478 32.4 65.9478 32.4C65.3078 32.4 64.7745 32.32 64.3478 32.16C63.0145 31.68 62.2011 30.7867 61.9078 29.48C61.8011 28.8667 61.8011 28.3467 61.9078 27.92C61.9078 27.9467 62.7345 24.5733 64.3878 17.8C66.0945 10.9733 66.8945 7.45333 66.7878 7.24C66.6011 7.05333 66.0278 6.94666 65.0678 6.92H64.2278L64.0678 6.76C63.9611 6.65333 63.9745 6.30667 64.1078 5.72C64.2678 5.10667 64.4011 4.77333 64.5078 4.72C64.5345 4.72 65.5878 4.64 67.6678 4.48Z" fill="#9A7600"/>
</svg>
