<svg width="50" height="50" viewBox="0 0 50 50" fill="none" xmlns="http://www.w3.org/2000/svg">
<circle cx="25" cy="25" r="25" fill="#D7D7D7"/>
<path d="M33.5947 16.0089L34.3307 15.9769H34.3627C34.9387 15.9769 35.248 16.0409 35.2907 16.1689C35.312 16.2542 35.6 19.7102 36.1547 26.5369C36.688 33.4062 36.976 36.8622 37.0187 36.9049C37.04 36.9262 37.1147 36.9582 37.2427 37.0009C37.4987 37.0649 38.1174 37.0969 39.0987 37.0969H39.7387L39.8667 37.1929C39.9307 37.2996 39.9627 37.3742 39.9627 37.4169L39.6747 38.6969C39.6107 38.8249 39.376 38.8782 38.9707 38.8569C38.8854 38.8569 38.7254 38.8569 38.4907 38.8569C35.3974 38.7716 32.8694 38.7822 30.9067 38.8889H30.5227L30.4267 38.7929C30.3414 38.7076 30.2987 38.6222 30.2987 38.5369C30.2987 38.1956 30.4054 37.7796 30.6187 37.2889C30.6614 37.1609 30.9707 37.0969 31.5467 37.0969C32.0587 37.0542 32.4 37.0329 32.5707 37.0329C33.0614 36.9476 33.328 36.8622 33.3707 36.7769C33.392 36.7556 33.3494 36.0516 33.2427 34.6649C33.136 33.4276 33.0827 32.7236 33.0827 32.5529C33.0827 32.5102 31.8667 32.4889 29.4347 32.4889H25.7547L24.7947 34.1849C24.112 35.3369 23.76 35.9662 23.7387 36.0729C23.6534 36.2862 23.6854 36.4676 23.8347 36.6169C24.048 36.8729 24.5067 37.0329 25.2107 37.0969C25.5094 37.0969 25.7014 37.1716 25.7867 37.3209L25.8187 37.4169L25.6587 38.0569C25.5734 38.4622 25.488 38.7076 25.4027 38.7929L25.3067 38.8889H24.9227C23.152 38.8036 21.4774 38.7822 19.8987 38.8249C18.8107 38.8676 18.256 38.8889 18.2347 38.8889H18.0107L17.9147 38.7929C17.8294 38.7076 17.7867 38.6329 17.7867 38.5689L18.0747 37.2889C18.16 37.1609 18.4054 37.0969 18.8107 37.0969C20.304 37.0329 21.3387 36.6062 21.9147 35.8169L27.7067 25.8969C31.4187 19.4756 33.3174 16.2222 33.4027 16.1369C33.424 16.1156 33.488 16.0729 33.5947 16.0089ZM32.5707 26.0889C32.336 23.0382 32.2187 21.4916 32.2187 21.4489C32.2187 21.3636 31.7494 22.1422 30.8107 23.7849L28.1227 28.4249L26.8107 30.6649L29.8507 30.6969H32.9227C32.9227 30.7182 32.8054 29.1822 32.5707 26.0889Z" fill="black"/>
<path d="M15.24 9.304L15.336 9.24H24.04H32.744L32.872 9.336C32.936 9.42133 32.968 9.50667 32.968 9.592L32.04 16.888C32.04 16.9947 31.9973 17.08 31.912 17.144L31.816 17.24H31.272C30.888 17.24 30.664 17.2187 30.6 17.176C30.4933 17.112 30.4613 16.8453 30.504 16.376C30.5893 15.7573 30.6427 15.1493 30.664 14.552C30.6853 13.6773 30.5787 12.9627 30.344 12.408C30.152 12.0667 29.864 11.7787 29.48 11.544C29.1813 11.3947 28.7867 11.2773 28.296 11.192C27.6987 11.0853 26.4613 11.0427 24.584 11.064C22.6213 11.064 21.5867 11.128 21.48 11.256L19.464 19.192C19.464 19.2133 20.008 19.224 21.096 19.224C22.2693 19.2027 22.92 19.1813 23.048 19.16C23.9867 18.9893 24.6587 18.5413 25.064 17.816C25.256 17.432 25.448 16.888 25.64 16.184C25.704 15.928 25.768 15.736 25.832 15.608C25.896 15.5227 26.1413 15.48 26.568 15.48C26.9947 15.48 27.24 15.5547 27.304 15.704L27.368 15.8L26.28 20.12C25.5973 22.9573 25.224 24.44 25.16 24.568C25.1173 24.696 24.872 24.76 24.424 24.76C23.976 24.76 23.72 24.6853 23.656 24.536C23.6133 24.472 23.624 24.28 23.688 23.96C23.9867 22.7867 24.0187 21.9973 23.784 21.592C23.6133 21.3573 23.2507 21.1867 22.696 21.08C22.5893 21.0587 21.928 21.0373 20.712 21.016H19.016L17.992 24.984C17.352 27.5653 17.032 28.9093 17.032 29.016C17.16 29.1227 17.9387 29.1867 19.368 29.208C20.2213 29.208 20.6907 29.2293 20.776 29.272C20.8613 29.272 20.904 29.3253 20.904 29.432C20.9467 29.496 20.9147 29.7413 20.808 30.168C20.68 30.616 20.5947 30.8613 20.552 30.904L20.456 31H19.88C17.1707 30.8933 14.2267 30.8827 11.048 30.968C10.3653 30.9893 9.98133 30.936 9.896 30.808C9.85333 30.744 9.87467 30.4987 9.96 30.072C10.0667 29.6027 10.1733 29.336 10.28 29.272C10.3867 29.2293 10.7707 29.208 11.432 29.208C12.6267 29.1867 13.2987 29.1013 13.448 28.952C13.512 28.9093 14.28 25.944 15.752 20.056C17.224 14.168 17.9493 11.2133 17.928 11.192C17.8853 11.1493 17.8107 11.128 17.704 11.128C17.448 11.064 16.8187 11.032 15.816 11.032C15.2613 11.032 14.952 10.968 14.888 10.84C14.8453 10.776 14.8667 10.5307 14.952 10.104C15.0587 9.656 15.1547 9.38933 15.24 9.304Z" fill="#9A7600"/>
</svg>
